<?xml version="1.0" encoding="UTF-8" standalone="no"?>
<!DOCTYPE svg PUBLIC "-//W3C//DTD SVG 1.1//EN"
 "http://www.w3.org/Graphics/SVG/1.1/DTD/svg11.dtd">
<!-- Generated by graphviz version 12.1.0 (20240811.2233)
 -->
<!-- Pages: 1 -->
<svg width="2974pt" height="188pt"
 viewBox="0.00 0.00 2973.89 188.32" xmlns="http://www.w3.org/2000/svg" xmlns:xlink="http://www.w3.org/1999/xlink">
<g id="graph0" class="graph" transform="scale(1 1) rotate(0) translate(4 184.32)">
<polygon fill="white" stroke="none" points="-4,4 -4,-184.32 2969.89,-184.32 2969.89,4 -4,4"/>
<!-- 0 -->
<g id="node1" class="node">
<title>0</title>
<polygon fill="aqua" stroke="darkred" stroke-width="5" points="105.25,-118.41 0,-118.41 0,-60.91 105.25,-60.91 105.25,-118.41"/>
<text text-anchor="middle" x="52.62" y="-101.11" font-family="Times,serif" font-size="14.00">0 x 1</text>
<text text-anchor="middle" x="52.62" y="-84.61" font-family="Times,serif" font-size="14.00">Leaf([2, 3], I32)</text>
<text text-anchor="middle" x="52.62" y="-68.11" font-family="Times,serif" font-size="14.00">[2, 3]</text>
</g>
<!-- 1 -->
<g id="node2" class="node">
<title>1</title>
<ellipse fill="aqua" stroke="black" cx="188.1" cy="-89.66" rx="46.85" ry="40.66"/>
<text text-anchor="middle" x="188.1" y="-101.11" font-family="Times,serif" font-size="14.00">1 x 1</text>
<text text-anchor="middle" x="188.1" y="-84.61" font-family="Times,serif" font-size="14.00">C&#45;F32(0)</text>
<text text-anchor="middle" x="188.1" y="-68.11" font-family="Times,serif" font-size="14.00">[2, 3]</text>
</g>
<!-- 0&#45;&gt;1 -->
<g id="edge1" class="edge">
<title>0&#45;&gt;1</title>
<path fill="none" stroke="black" d="M107.53,-89.66C114.84,-89.66 122.37,-89.66 129.74,-89.66"/>
<polygon fill="black" stroke="black" points="129.62,-93.16 139.62,-89.66 129.62,-86.16 129.62,-93.16"/>
</g>
<!-- 2 -->
<g id="node3" class="node">
<title>2</title>
<ellipse fill="aqua" stroke="black" cx="313.54" cy="-89.66" rx="42.6" ry="40.66"/>
<text text-anchor="middle" x="313.54" y="-101.11" font-family="Times,serif" font-size="14.00">2 x 1</text>
<text text-anchor="middle" x="313.54" y="-84.61" font-family="Times,serif" font-size="14.00">Exp2(1)</text>
<text text-anchor="middle" x="313.54" y="-68.11" font-family="Times,serif" font-size="14.00">[2, 3]</text>
</g>
<!-- 1&#45;&gt;2 -->
<g id="edge2" class="edge">
<title>1&#45;&gt;2</title>
<path fill="none" stroke="black" d="M235.41,-89.66C243.14,-89.66 251.2,-89.66 259.09,-89.66"/>
<polygon fill="black" stroke="black" points="258.93,-93.16 268.93,-89.66 258.93,-86.16 258.93,-93.16"/>
</g>
<!-- 3 -->
<g id="node4" class="node">
<title>3</title>
<ellipse fill="aqua" stroke="black" cx="434.75" cy="-89.66" rx="42.6" ry="40.66"/>
<text text-anchor="middle" x="434.75" y="-101.11" font-family="Times,serif" font-size="14.00">3 x 1</text>
<text text-anchor="middle" x="434.75" y="-84.61" font-family="Times,serif" font-size="14.00">Log2(2)</text>
<text text-anchor="middle" x="434.75" y="-68.11" font-family="Times,serif" font-size="14.00">[2, 3]</text>
</g>
<!-- 2&#45;&gt;3 -->
<g id="edge3" class="edge">
<title>2&#45;&gt;3</title>
<path fill="none" stroke="black" d="M356.57,-89.66C364.23,-89.66 372.31,-89.66 380.25,-89.66"/>
<polygon fill="black" stroke="black" points="380.19,-93.16 390.19,-89.66 380.19,-86.16 380.19,-93.16"/>
</g>
<!-- 4 -->
<g id="node5" class="node">
<title>4</title>
<ellipse fill="aqua" stroke="black" cx="555.96" cy="-89.66" rx="42.6" ry="40.66"/>
<text text-anchor="middle" x="555.96" y="-101.11" font-family="Times,serif" font-size="14.00">4 x 1</text>
<text text-anchor="middle" x="555.96" y="-84.61" font-family="Times,serif" font-size="14.00">Exp2(3)</text>
<text text-anchor="middle" x="555.96" y="-68.11" font-family="Times,serif" font-size="14.00">[2, 3]</text>
</g>
<!-- 3&#45;&gt;4 -->
<g id="edge4" class="edge">
<title>3&#45;&gt;4</title>
<path fill="none" stroke="black" d="M477.78,-89.66C485.44,-89.66 493.52,-89.66 501.45,-89.66"/>
<polygon fill="black" stroke="black" points="501.39,-93.16 511.39,-89.66 501.39,-86.16 501.39,-93.16"/>
</g>
<!-- 5 -->
<g id="node6" class="node">
<title>5</title>
<ellipse fill="aqua" stroke="black" cx="677.16" cy="-89.66" rx="42.6" ry="40.66"/>
<text text-anchor="middle" x="677.16" y="-101.11" font-family="Times,serif" font-size="14.00">5 x 1</text>
<text text-anchor="middle" x="677.16" y="-84.61" font-family="Times,serif" font-size="14.00">Log2(4)</text>
<text text-anchor="middle" x="677.16" y="-68.11" font-family="Times,serif" font-size="14.00">[2, 3]</text>
</g>
<!-- 4&#45;&gt;5 -->
<g id="edge5" class="edge">
<title>4&#45;&gt;5</title>
<path fill="none" stroke="black" d="M598.99,-89.66C606.64,-89.66 614.72,-89.66 622.66,-89.66"/>
<polygon fill="black" stroke="black" points="622.6,-93.16 632.6,-89.66 622.6,-86.16 622.6,-93.16"/>
</g>
<!-- 6 -->
<g id="node7" class="node">
<title>6</title>
<ellipse fill="aqua" stroke="black" cx="798.37" cy="-89.66" rx="42.6" ry="40.66"/>
<text text-anchor="middle" x="798.37" y="-101.11" font-family="Times,serif" font-size="14.00">6 x 1</text>
<text text-anchor="middle" x="798.37" y="-84.61" font-family="Times,serif" font-size="14.00">Exp2(5)</text>
<text text-anchor="middle" x="798.37" y="-68.11" font-family="Times,serif" font-size="14.00">[2, 3]</text>
</g>
<!-- 5&#45;&gt;6 -->
<g id="edge6" class="edge">
<title>5&#45;&gt;6</title>
<path fill="none" stroke="black" d="M720.19,-89.66C727.85,-89.66 735.93,-89.66 743.86,-89.66"/>
<polygon fill="black" stroke="black" points="743.81,-93.16 753.81,-89.66 743.81,-86.16 743.81,-93.16"/>
</g>
<!-- 7 -->
<g id="node8" class="node">
<title>7</title>
<ellipse fill="aqua" stroke="black" cx="919.58" cy="-89.66" rx="42.6" ry="40.66"/>
<text text-anchor="middle" x="919.58" y="-101.11" font-family="Times,serif" font-size="14.00">7 x 1</text>
<text text-anchor="middle" x="919.58" y="-84.61" font-family="Times,serif" font-size="14.00">Log2(6)</text>
<text text-anchor="middle" x="919.58" y="-68.11" font-family="Times,serif" font-size="14.00">[2, 3]</text>
</g>
<!-- 6&#45;&gt;7 -->
<g id="edge7" class="edge">
<title>6&#45;&gt;7</title>
<path fill="none" stroke="black" d="M841.4,-89.66C849.05,-89.66 857.14,-89.66 865.07,-89.66"/>
<polygon fill="black" stroke="black" points="865.01,-93.16 875.01,-89.66 865.01,-86.16 865.01,-93.16"/>
</g>
<!-- 8 -->
<g id="node9" class="node">
<title>8</title>
<ellipse fill="aqua" stroke="black" cx="1040.78" cy="-89.66" rx="42.6" ry="40.66"/>
<text text-anchor="middle" x="1040.78" y="-101.11" font-family="Times,serif" font-size="14.00">8 x 1</text>
<text text-anchor="middle" x="1040.78" y="-84.61" font-family="Times,serif" font-size="14.00">Exp2(7)</text>
<text text-anchor="middle" x="1040.78" y="-68.11" font-family="Times,serif" font-size="14.00">[2, 3]</text>
</g>
<!-- 7&#45;&gt;8 -->
<g id="edge8" class="edge">
<title>7&#45;&gt;8</title>
<path fill="none" stroke="black" d="M962.6,-89.66C970.26,-89.66 978.34,-89.66 986.28,-89.66"/>
<polygon fill="black" stroke="black" points="986.22,-93.16 996.22,-89.66 986.22,-86.16 986.22,-93.16"/>
</g>
<!-- 9 -->
<g id="node10" class="node">
<title>9</title>
<ellipse fill="aqua" stroke="black" cx="1161.99" cy="-89.66" rx="42.6" ry="40.66"/>
<text text-anchor="middle" x="1161.99" y="-101.11" font-family="Times,serif" font-size="14.00">9 x 1</text>
<text text-anchor="middle" x="1161.99" y="-84.61" font-family="Times,serif" font-size="14.00">Log2(8)</text>
<text text-anchor="middle" x="1161.99" y="-68.11" font-family="Times,serif" font-size="14.00">[2, 3]</text>
</g>
<!-- 8&#45;&gt;9 -->
<g id="edge9" class="edge">
<title>8&#45;&gt;9</title>
<path fill="none" stroke="black" d="M1083.81,-89.66C1091.47,-89.66 1099.55,-89.66 1107.48,-89.66"/>
<polygon fill="black" stroke="black" points="1107.43,-93.16 1117.43,-89.66 1107.43,-86.16 1107.43,-93.16"/>
</g>
<!-- 10 -->
<g id="node11" class="node">
<title>10</title>
<ellipse fill="aqua" stroke="black" cx="1283.2" cy="-89.66" rx="42.6" ry="40.66"/>
<text text-anchor="middle" x="1283.2" y="-101.11" font-family="Times,serif" font-size="14.00">10 x 1</text>
<text text-anchor="middle" x="1283.2" y="-84.61" font-family="Times,serif" font-size="14.00">Exp2(9)</text>
<text text-anchor="middle" x="1283.2" y="-68.11" font-family="Times,serif" font-size="14.00">[2, 3]</text>
</g>
<!-- 9&#45;&gt;10 -->
<g id="edge10" class="edge">
<title>9&#45;&gt;10</title>
<path fill="none" stroke="black" d="M1205.02,-89.66C1212.67,-89.66 1220.75,-89.66 1228.69,-89.66"/>
<polygon fill="black" stroke="black" points="1228.63,-93.16 1238.63,-89.66 1228.63,-86.16 1228.63,-93.16"/>
</g>
<!-- 11 -->
<g id="node12" class="node">
<title>11</title>
<ellipse fill="aqua" stroke="black" cx="1409.18" cy="-89.66" rx="47.38" ry="40.66"/>
<text text-anchor="middle" x="1409.18" y="-101.11" font-family="Times,serif" font-size="14.00">11 x 1</text>
<text text-anchor="middle" x="1409.18" y="-84.61" font-family="Times,serif" font-size="14.00">Log2(10)</text>
<text text-anchor="middle" x="1409.18" y="-68.11" font-family="Times,serif" font-size="14.00">[2, 3]</text>
</g>
<!-- 10&#45;&gt;11 -->
<g id="edge11" class="edge">
<title>10&#45;&gt;11</title>
<path fill="none" stroke="black" d="M1326.17,-89.66C1333.9,-89.66 1342.11,-89.66 1350.21,-89.66"/>
<polygon fill="black" stroke="black" points="1350.04,-93.16 1360.04,-89.66 1350.04,-86.16 1350.04,-93.16"/>
</g>
<!-- 12 -->
<g id="node13" class="node">
<title>12</title>
<ellipse fill="aqua" stroke="black" cx="1539.93" cy="-89.66" rx="47.38" ry="40.66"/>
<text text-anchor="middle" x="1539.93" y="-101.11" font-family="Times,serif" font-size="14.00">12 x 1</text>
<text text-anchor="middle" x="1539.93" y="-84.61" font-family="Times,serif" font-size="14.00">Exp2(11)</text>
<text text-anchor="middle" x="1539.93" y="-68.11" font-family="Times,serif" font-size="14.00">[2, 3]</text>
</g>
<!-- 11&#45;&gt;12 -->
<g id="edge12" class="edge">
<title>11&#45;&gt;12</title>
<path fill="none" stroke="black" d="M1457.02,-89.66C1464.84,-89.66 1473.03,-89.66 1481.09,-89.66"/>
<polygon fill="black" stroke="black" points="1480.82,-93.16 1490.82,-89.66 1480.82,-86.16 1480.82,-93.16"/>
</g>
<!-- 13 -->
<g id="node14" class="node">
<title>13</title>
<ellipse fill="aqua" stroke="black" cx="1670.68" cy="-89.66" rx="47.38" ry="40.66"/>
<text text-anchor="middle" x="1670.68" y="-101.11" font-family="Times,serif" font-size="14.00">13 x 1</text>
<text text-anchor="middle" x="1670.68" y="-84.61" font-family="Times,serif" font-size="14.00">Log2(12)</text>
<text text-anchor="middle" x="1670.68" y="-68.11" font-family="Times,serif" font-size="14.00">[2, 3]</text>
</g>
<!-- 12&#45;&gt;13 -->
<g id="edge13" class="edge">
<title>12&#45;&gt;13</title>
<path fill="none" stroke="black" d="M1587.77,-89.66C1595.59,-89.66 1603.79,-89.66 1611.84,-89.66"/>
<polygon fill="black" stroke="black" points="1611.57,-93.16 1621.57,-89.66 1611.57,-86.16 1611.57,-93.16"/>
</g>
<!-- 14 -->
<g id="node15" class="node">
<title>14</title>
<ellipse fill="aqua" stroke="black" cx="1801.43" cy="-89.66" rx="47.38" ry="40.66"/>
<text text-anchor="middle" x="1801.43" y="-101.11" font-family="Times,serif" font-size="14.00">14 x 1</text>
<text text-anchor="middle" x="1801.43" y="-84.61" font-family="Times,serif" font-size="14.00">Exp2(13)</text>
<text text-anchor="middle" x="1801.43" y="-68.11" font-family="Times,serif" font-size="14.00">[2, 3]</text>
</g>
<!-- 13&#45;&gt;14 -->
<g id="edge14" class="edge">
<title>13&#45;&gt;14</title>
<path fill="none" stroke="black" d="M1718.53,-89.66C1726.35,-89.66 1734.54,-89.66 1742.59,-89.66"/>
<polygon fill="black" stroke="black" points="1742.32,-93.16 1752.32,-89.66 1742.32,-86.16 1742.32,-93.16"/>
</g>
<!-- 15 -->
<g id="node16" class="node">
<title>15</title>
<ellipse fill="aqua" stroke="black" cx="1932.18" cy="-89.66" rx="47.38" ry="40.66"/>
<text text-anchor="middle" x="1932.18" y="-101.11" font-family="Times,serif" font-size="14.00">15 x 1</text>
<text text-anchor="middle" x="1932.18" y="-84.61" font-family="Times,serif" font-size="14.00">Log2(14)</text>
<text text-anchor="middle" x="1932.18" y="-68.11" font-family="Times,serif" font-size="14.00">[2, 3]</text>
</g>
<!-- 14&#45;&gt;15 -->
<g id="edge15" class="edge">
<title>14&#45;&gt;15</title>
<path fill="none" stroke="black" d="M1849.28,-89.66C1857.1,-89.66 1865.29,-89.66 1873.35,-89.66"/>
<polygon fill="black" stroke="black" points="1873.07,-93.16 1883.07,-89.66 1873.07,-86.16 1873.07,-93.16"/>
</g>
<!-- 16 -->
<g id="node17" class="node">
<title>16</title>
<ellipse fill="aqua" stroke="black" cx="2062.94" cy="-89.66" rx="47.38" ry="40.66"/>
<text text-anchor="middle" x="2062.94" y="-101.11" font-family="Times,serif" font-size="14.00">16 x 1</text>
<text text-anchor="middle" x="2062.94" y="-84.61" font-family="Times,serif" font-size="14.00">Exp2(15)</text>
<text text-anchor="middle" x="2062.94" y="-68.11" font-family="Times,serif" font-size="14.00">[2, 3]</text>
</g>
<!-- 15&#45;&gt;16 -->
<g id="edge16" class="edge">
<title>15&#45;&gt;16</title>
<path fill="none" stroke="black" d="M1980.03,-89.66C1987.85,-89.66 1996.04,-89.66 2004.1,-89.66"/>
<polygon fill="black" stroke="black" points="2003.83,-93.16 2013.83,-89.66 2003.83,-86.16 2003.83,-93.16"/>
</g>
<!-- 17 -->
<g id="node18" class="node">
<title>17</title>
<ellipse fill="aqua" stroke="black" cx="2193.69" cy="-89.66" rx="47.38" ry="40.66"/>
<text text-anchor="middle" x="2193.69" y="-101.11" font-family="Times,serif" font-size="14.00">17 x 2</text>
<text text-anchor="middle" x="2193.69" y="-84.61" font-family="Times,serif" font-size="14.00">Log2(16)</text>
<text text-anchor="middle" x="2193.69" y="-68.11" font-family="Times,serif" font-size="14.00">[2, 3]</text>
</g>
<!-- 16&#45;&gt;17 -->
<g id="edge17" class="edge">
<title>16&#45;&gt;17</title>
<path fill="none" stroke="black" d="M2110.78,-89.66C2118.6,-89.66 2126.8,-89.66 2134.85,-89.66"/>
<polygon fill="black" stroke="black" points="2134.58,-93.16 2144.58,-89.66 2134.58,-86.16 2134.58,-93.16"/>
</g>
<!-- 18 -->
<g id="node19" class="node">
<title>18</title>
<ellipse fill="aqua" stroke="black" cx="2336.64" cy="-55.66" rx="59.57" ry="40.66"/>
<text text-anchor="middle" x="2336.64" y="-67.11" font-family="Times,serif" font-size="14.00">18 x 1</text>
<text text-anchor="middle" x="2336.64" y="-50.61" font-family="Times,serif" font-size="14.00">Permute(17)</text>
<text text-anchor="middle" x="2336.64" y="-34.11" font-family="Times,serif" font-size="14.00">[3, 2]</text>
</g>
<!-- 17&#45;&gt;18 -->
<g id="edge18" class="edge">
<title>17&#45;&gt;18</title>
<path fill="none" stroke="black" d="M2239.67,-78.81C2248.98,-76.56 2258.97,-74.15 2268.87,-71.76"/>
<polygon fill="black" stroke="black" points="2269.59,-75.19 2278.49,-69.44 2267.94,-68.39 2269.59,-75.19"/>
</g>
<!-- 19 -->
<g id="node20" class="node">
<title>19</title>
<ellipse fill="aqua" stroke="black" cx="2491.79" cy="-139.66" rx="59.57" ry="40.66"/>
<text text-anchor="middle" x="2491.79" y="-151.11" font-family="Times,serif" font-size="14.00">19 x 1</text>
<text text-anchor="middle" x="2491.79" y="-134.61" font-family="Times,serif" font-size="14.00">Reshape(17)</text>
<text text-anchor="middle" x="2491.79" y="-118.11" font-family="Times,serif" font-size="14.00">[6]</text>
</g>
<!-- 17&#45;&gt;19 -->
<g id="edge19" class="edge">
<title>17&#45;&gt;19</title>
<path fill="none" stroke="black" d="M2239.96,-98.74C2252,-101.08 2265.01,-103.53 2277.07,-105.66 2325.36,-114.19 2379.97,-122.86 2421.9,-129.31"/>
<polygon fill="black" stroke="black" points="2421.19,-132.74 2431.6,-130.8 2422.25,-125.82 2421.19,-132.74"/>
</g>
<!-- 20 -->
<g id="node21" class="node">
<title>20</title>
<ellipse fill="aqua" stroke="black" cx="2491.79" cy="-40.66" rx="59.57" ry="40.66"/>
<text text-anchor="middle" x="2491.79" y="-52.11" font-family="Times,serif" font-size="14.00">20 x 1</text>
<text text-anchor="middle" x="2491.79" y="-35.61" font-family="Times,serif" font-size="14.00">Reshape(18)</text>
<text text-anchor="middle" x="2491.79" y="-19.11" font-family="Times,serif" font-size="14.00">[6]</text>
</g>
<!-- 18&#45;&gt;20 -->
<g id="edge20" class="edge">
<title>18&#45;&gt;20</title>
<path fill="none" stroke="black" d="M2395.97,-49.94C2404.17,-49.14 2412.66,-48.31 2421.04,-47.49"/>
<polygon fill="black" stroke="black" points="2421.24,-50.99 2430.85,-46.53 2420.56,-44.02 2421.24,-50.99"/>
</g>
<!-- 21 -->
<g id="node22" class="node">
<title>21</title>
<ellipse fill="aqua" stroke="black" cx="2645.87" cy="-89.66" rx="58.51" ry="40.66"/>
<text text-anchor="middle" x="2645.87" y="-101.11" font-family="Times,serif" font-size="14.00">21 x 1</text>
<text text-anchor="middle" x="2645.87" y="-84.61" font-family="Times,serif" font-size="14.00">Add(19, 20)</text>
<text text-anchor="middle" x="2645.87" y="-68.11" font-family="Times,serif" font-size="14.00">[6]</text>
</g>
<!-- 19&#45;&gt;21 -->
<g id="edge21" class="edge">
<title>19&#45;&gt;21</title>
<path fill="none" stroke="black" d="M2545.98,-122.17C2557.52,-118.38 2569.84,-114.33 2581.72,-110.42"/>
<polygon fill="black" stroke="black" points="2582.64,-113.8 2591.04,-107.36 2580.45,-107.15 2582.64,-113.8"/>
</g>
<!-- 20&#45;&gt;21 -->
<g id="edge22" class="edge">
<title>20&#45;&gt;21</title>
<path fill="none" stroke="black" d="M2545.98,-57.8C2557.46,-61.49 2569.7,-65.44 2581.52,-69.25"/>
<polygon fill="black" stroke="black" points="2580.19,-72.5 2590.78,-72.23 2582.34,-65.83 2580.19,-72.5"/>
</g>
<!-- 22 -->
<g id="node23" class="node">
<title>22</title>
<ellipse fill="aqua" stroke="black" cx="2787.76" cy="-89.66" rx="47.38" ry="40.66"/>
<text text-anchor="middle" x="2787.76" y="-101.11" font-family="Times,serif" font-size="14.00">22 x 1</text>
<text text-anchor="middle" x="2787.76" y="-84.61" font-family="Times,serif" font-size="14.00">Exp2(21)</text>
<text text-anchor="middle" x="2787.76" y="-68.11" font-family="Times,serif" font-size="14.00">[6]</text>
</g>
<!-- 21&#45;&gt;22 -->
<g id="edge23" class="edge">
<title>21&#45;&gt;22</title>
<path fill="none" stroke="black" d="M2704.58,-89.66C2712.57,-89.66 2720.78,-89.66 2728.77,-89.66"/>
<polygon fill="black" stroke="black" points="2728.77,-93.16 2738.77,-89.66 2728.77,-86.16 2728.77,-93.16"/>
</g>
<!-- 23 -->
<g id="node24" class="node">
<title>23</title>
<ellipse fill="coral" stroke="black" cx="2918.51" cy="-89.66" rx="47.38" ry="40.66"/>
<text text-anchor="middle" x="2918.51" y="-101.11" font-family="Times,serif" font-size="14.00">23 x 1</text>
<text text-anchor="middle" x="2918.51" y="-84.61" font-family="Times,serif" font-size="14.00">Log2(22)</text>
<text text-anchor="middle" x="2918.51" y="-68.11" font-family="Times,serif" font-size="14.00">[6]</text>
</g>
<!-- 22&#45;&gt;23 -->
<g id="edge24" class="edge">
<title>22&#45;&gt;23</title>
<path fill="none" stroke="black" d="M2835.61,-89.66C2843.43,-89.66 2851.62,-89.66 2859.68,-89.66"/>
<polygon fill="black" stroke="black" points="2859.4,-93.16 2869.4,-89.66 2859.4,-86.16 2859.4,-93.16"/>
</g>
</g>
</svg>
